<svg xmlns="http://www.w3.org/2000/svg" width="215" height="26" fill="none" viewBox="0 0 215 26">
  <path fill="#0473E4" d="M7.255 1.096v8.21h.066l6.464-8.21h8.936l-8.54 9.312 9.926 14.518H15.07l-5.804-9.278-2.012 2.236v7.042H0V1.096h7.255Z"/>
  <path fill="#0473E4" d="M35.33.528c3.517 0 6.386 1.146 8.607 3.438 2.22 2.292 3.33 5.307 3.33 9.045 0 3.694-1.11 6.698-3.33 9.012-2.22 2.314-5.09 3.47-8.607 3.47-3.54 0-6.42-1.156-8.64-3.47-2.199-2.337-3.298-5.34-3.298-9.012 0-3.76 1.121-6.775 3.364-9.045 2.242-2.292 5.1-3.438 8.574-3.438Zm-4.683 12.483c0 2.158.429 3.794 1.286 4.906.88 1.09 2.012 1.636 3.397 1.636 1.385 0 2.506-.545 3.364-1.636.879-1.112 1.319-2.748 1.319-4.906 0-2.002-.418-3.593-1.254-4.773-.813-1.179-1.967-1.769-3.462-1.769-1.43 0-2.561.579-3.397 1.736-.835 1.157-1.253 2.759-1.253 4.806ZM57.586 1.096v23.83h-7.255V1.096h7.255ZM68.766 1.096l6.86 12.716h.065V1.096h6.86v23.83h-7.058L68.271 11.91h-.066v13.016h-6.86V1.096h7.42ZM97.581.528c3.518 0 6.387 1.146 8.607 3.438 2.221 2.292 3.331 5.307 3.331 9.045 0 3.694-1.11 6.698-3.331 9.012-2.22 2.314-5.089 3.47-8.607 3.47-3.54 0-6.42-1.156-8.64-3.47-2.198-2.337-3.298-5.34-3.298-9.012 0-3.76 1.122-6.775 3.364-9.045 2.243-2.292 5.1-3.438 8.574-3.438Zm-4.683 12.483c0 2.158.43 3.794 1.287 4.906.879 1.09 2.011 1.636 3.396 1.636 1.385 0 2.507-.545 3.364-1.636.879-1.112 1.319-2.748 1.319-4.906 0-2.002-.418-3.593-1.253-4.773-.814-1.179-1.968-1.769-3.463-1.769-1.429 0-2.561.579-3.396 1.736-.836 1.157-1.254 2.759-1.254 4.806ZM130.749 1.096v6.108h-6.596v17.722h-7.255V7.204h-6.595V1.096h20.446ZM160.505.506v15.408c0 3.105-.731 5.368-2.192 6.788-1.44 1.42-3.665 2.13-6.677 2.13-2.923 0-5.115-.755-6.576-2.263-1.439-1.509-2.159-3.56-2.159-6.156v-2.13h6.576v2.163c0 .932.144 1.62.432 2.063.31.444.82.666 1.528.666 1.174 0 1.76-.877 1.76-2.63V.507h7.308ZM206.38.577c2.374 0 4.205.542 5.492 1.628 1.286 1.085 1.93 2.567 1.93 4.444 0 1.13-.244 2.069-.732 2.815-.466.724-1.198 1.368-2.197 1.934 1.354.452 2.374 1.198 3.062 2.239.71 1.04 1.065 2.306 1.065 3.799 0 2.262-.821 4.06-2.463 5.394-1.642 1.311-3.572 1.967-5.791 1.967h-13.545V.577h13.179Zm-1.863 9.43c.821 0 1.42-.147 1.797-.441.377-.317.566-.837.566-1.56 0-1.109-.799-1.663-2.397-1.663h-3.96v3.664h3.994Zm.399 9.023c1.842 0 2.762-.769 2.762-2.306 0-.724-.222-1.267-.665-1.629-.444-.384-1.043-.576-1.797-.576h-4.693v4.511h4.393ZM176.853.506c3.39 0 6.155 1.112 8.295 3.336 2.14 2.223 3.21 5.148 3.21 8.775 0 3.583-1.07 6.497-3.21 8.742-2.14 2.245-4.905 3.368-8.295 3.368-3.411 0-6.187-1.123-8.327-3.368-2.118-2.266-3.178-5.18-3.178-8.742 0-3.649 1.081-6.574 3.242-8.775 2.161-2.224 4.916-3.336 8.263-3.336Zm-4.513 12.11c0 2.095.413 3.681 1.24 4.76.847 1.058 1.938 1.587 3.273 1.587 1.335 0 2.415-.529 3.242-1.587.847-1.079 1.271-2.665 1.271-4.76 0-1.942-.403-3.486-1.208-4.63-.784-1.144-1.896-1.716-3.337-1.716-1.377 0-2.468.561-3.273 1.684-.805 1.122-1.208 2.677-1.208 4.663Z"/>
</svg>
