<svg width="259" height="47" viewBox="0 0 259 47" fill="none" xmlns="http://www.w3.org/2000/svg">
<path fill-rule="evenodd" clip-rule="evenodd" d="M31.5646 34.7673C28.8322 37.0383 25.4712 38.51 21.8008 38.8467L21.8008 21.5947L31.5646 34.7673Z" fill="#3D334C"/>
<mask id="mask0_2009_2144" style="mask-type:luminance" maskUnits="userSpaceOnUse" x="21" y="21" width="11" height="18">
<path d="M31.5666 34.7673C28.8342 37.0383 25.4732 38.51 21.8027 38.8467L21.8027 21.5947L31.5666 34.7673Z" fill="white"/>
</mask>
<g mask="url(#mask0_2009_2144)">
<path d="M20.1638 26.5113C24.1677 26.5113 27.4135 23.3304 27.4135 19.4066C27.4135 15.4827 24.1677 12.3018 20.1638 12.3018C16.1599 12.3018 12.9141 15.4827 12.9141 19.4065C12.9141 23.3304 16.1599 26.5113 20.1638 26.5113Z" fill="#D4181F"/>
</g>
<path fill-rule="evenodd" clip-rule="evenodd" d="M35.3126 8.6626C37.3551 11.7741 38.5516 15.5466 38.5516 19.6136C38.5516 23.6921 37.3481 27.4742 35.2948 30.5908L26.5742 19.5779L35.3126 8.6626Z" fill="#3D334C"/>
<mask id="mask1_2009_2144" style="mask-type:luminance" maskUnits="userSpaceOnUse" x="26" y="8" width="13" height="23">
<path d="M35.3106 8.66358C37.3531 11.7751 38.5497 15.5476 38.5497 19.6146C38.5497 23.6931 37.3461 27.4752 35.2929 30.5917L26.5723 19.5789L35.3106 8.66358Z" fill="white"/>
</mask>
<g mask="url(#mask1_2009_2144)">
<path d="M20.1579 26.5099C24.1618 26.5099 27.4077 23.329 27.4077 19.4051C27.4077 15.4812 24.1618 12.3003 20.1579 12.3003C16.154 12.3003 12.9082 15.4812 12.9082 19.4051C12.9082 23.329 16.154 26.5099 20.1579 26.5099Z" fill="#3D334C"/>
</g>
<path fill-rule="evenodd" clip-rule="evenodd" d="M21.8008 0.382324C25.6493 0.73548 29.1571 2.33682 31.9572 4.79837L21.8008 17.5156L21.8008 0.382324Z" fill="#3D334C"/>
<mask id="mask2_2009_2144" style="mask-type:luminance" maskUnits="userSpaceOnUse" x="21" y="0" width="11" height="18">
<path d="M21.8027 0.381348C25.6512 0.734504 29.159 2.33584 31.9592 4.79739L21.8027 17.5146L21.8027 0.381348Z" fill="white"/>
</mask>
<g mask="url(#mask2_2009_2144)">
<path d="M20.1638 26.5128C24.1677 26.5128 27.4135 23.3319 27.4135 19.408C27.4135 15.4841 24.1677 12.3032 20.1638 12.3032C16.1599 12.3032 12.9141 15.4841 12.9141 19.408C12.9141 23.3319 16.1599 26.5128 20.1638 26.5128Z" fill="#D4181F"/>
</g>
<path fill-rule="evenodd" clip-rule="evenodd" d="M16.5038 38.6058C7.32377 36.9628 0.365229 29.0857 0.365231 19.6147C0.365233 10.1431 7.32378 2.26607 16.5038 0.62305L16.5038 38.6058Z" fill="#3D334C"/>
<mask id="mask3_2009_2144" style="mask-type:luminance" maskUnits="userSpaceOnUse" x="0" y="0" width="17" height="39">
<path d="M16.5029 38.6068C7.32279 36.9638 0.364253 29.0867 0.364254 19.6156C0.364256 10.1441 7.3228 2.26704 16.5029 0.624026L16.5029 38.6068Z" fill="white"/>
</mask>
<g mask="url(#mask3_2009_2144)">
<path d="M20.157 26.5113C24.1609 26.5113 27.4067 23.3304 27.4067 19.4066C27.4067 15.4827 24.1609 12.3018 20.157 12.3018C16.153 12.3018 12.9072 15.4827 12.9072 19.4065C12.9072 23.3304 16.153 26.5113 20.157 26.5113Z" fill="#D4181F"/>
</g>
<path d="M51.7904 32.4706L48.3574 32.4706L48.3574 10.0624L51.7904 10.0624L51.7904 20.7L60.2458 10.0624L64.4735 10.0624L55.7638 20.6371L65.2681 32.4706L60.9133 32.4706L51.7904 20.7629L51.7904 32.4706Z" fill="#3D334C"/>
<path d="M82.9574 19.6929L82.9574 21.5812C82.9574 25.2635 82.9256 28.0645 80.7641 30.2676C79.2065 31.8412 77.1721 32.6595 74.7881 32.6595C72.4359 32.6595 70.4015 31.8412 68.8439 30.2676C66.6824 28.096 66.6506 25.0432 66.6506 21.7071L66.6506 20.2279C66.6506 16.5457 66.9367 14.1538 68.8439 12.2654C70.4015 10.7233 72.4676 9.87353 74.7881 9.87354C77.1403 9.87354 79.2065 10.7233 80.7641 12.2654C82.5124 14.0279 82.9574 16.5142 82.9574 19.6929ZM79.4926 21.0462C79.4926 17.6472 79.429 15.633 78.1575 14.3111C77.2675 13.3984 76.0914 12.9263 74.7881 12.9263C73.5166 12.9263 72.3087 13.3984 71.4187 14.3111C70.1472 15.633 70.1154 17.836 70.1154 20.7L70.1154 22.6198C70.1154 24.9173 70.2108 27.0259 71.4187 28.2219C72.3405 29.1346 73.4848 29.6067 74.7881 29.6067C76.1232 29.6067 77.2993 29.1346 78.1575 28.2219C79.4926 26.8371 79.4926 24.8544 79.4926 21.0462Z" fill="#3D334C"/>
<path d="M104.746 32.4707L101.313 32.4707L101.313 16.1995L91.1731 32.4707L88.058 32.4707L88.058 10.0624L91.491 10.0624L91.491 26.3021L101.599 10.0624L104.746 10.0624L104.746 32.4707Z" fill="#3D334C"/>
<path d="M126.709 32.4707L123.244 32.4707L123.244 22.6828L114.09 22.6828L114.09 32.4707L110.657 32.4707L110.657 10.0624L114.09 10.0624L114.09 19.6614L123.244 19.6614L123.244 10.0624L126.709 10.0624L126.709 32.4707Z" fill="#3D334C"/>
<path d="M148.084 19.6929L148.084 21.5812C148.084 25.2635 148.052 28.0645 145.89 30.2676C144.333 31.8412 142.298 32.6595 139.914 32.6595C137.562 32.6595 135.528 31.8412 133.97 30.2676C131.809 28.096 131.777 25.0432 131.777 21.7071L131.777 20.2279C131.777 16.5457 132.063 14.1538 133.97 12.2654C135.528 10.7233 137.594 9.87355 139.914 9.87355C142.267 9.87355 144.333 10.7233 145.89 12.2654C147.639 14.0279 148.084 16.5142 148.084 19.6929ZM144.619 21.0462C144.619 17.6472 144.555 15.633 143.284 14.3111C142.394 13.3984 141.218 12.9264 139.914 12.9264C138.643 12.9264 137.435 13.3984 136.545 14.3111C135.273 15.633 135.242 17.836 135.242 20.7L135.242 22.6198C135.242 24.9173 135.337 27.026 136.545 28.2219C137.467 29.1346 138.611 29.6067 139.914 29.6067C141.249 29.6067 142.425 29.1346 143.284 28.2219C144.619 26.8371 144.619 24.8544 144.619 21.0462Z" fill="#3D334C"/>
<path d="M166.454 13.1152L160.224 13.1152L160.224 32.4707L156.791 32.4707L156.791 13.1152L150.561 13.1152L150.561 10.0624L166.454 10.0624L166.454 13.1152Z" fill="#3D334C"/>
<path d="M187.039 32.4707L183.606 32.4707L183.606 16.1995L173.466 32.4707L170.35 32.4707L170.35 10.0624L173.783 10.0624L173.783 26.3021L183.892 10.0624L187.039 10.0624L187.039 32.4707Z" fill="#3D334C"/>
<path d="M216.638 32.4707L213.173 32.4707L213.173 22.6828L204.018 22.6828L204.018 32.4707L200.585 32.4707L200.585 10.0624L204.018 10.0624L204.018 19.6614L213.173 19.6614L213.173 10.0624L216.638 10.0624L216.638 32.4707Z" fill="#3D334C"/>
<path d="M239.157 32.4707L235.565 32.4707L233.975 27.9701L225.043 27.9701L223.454 32.4707L219.83 32.4707L228.127 10.0624L230.892 10.0624L239.157 32.4707ZM233.054 25.0747L229.589 15.1294L226.029 25.0747L233.054 25.0747Z" fill="#3D334C"/>
<path d="M258.388 26.1762C258.388 30.0473 255.781 32.4707 251.554 32.4707L242.399 32.4707L242.399 10.0624L251.204 10.0624C255.336 10.0624 258.038 12.4543 258.038 16.1051C258.038 18.3711 256.989 20.0076 254.987 20.9833C257.212 22.0219 258.388 23.627 258.388 26.1762ZM254.605 16.3254C254.605 14.3112 253.207 13.1152 250.918 13.1152L245.832 13.1152L245.832 19.5356L250.918 19.5356C253.207 19.5356 254.605 18.3396 254.605 16.3254ZM254.923 25.9874C254.923 23.9102 253.493 22.5884 251.204 22.5884L245.832 22.5884L245.832 29.4179L251.204 29.4179C253.493 29.4179 254.923 28.096 254.923 25.9874Z" fill="#3D334C"/>
<path d="M65.0938 37.9994L65.985 37.9994L65.985 41.678L70.4892 41.678L70.4892 37.9994L71.3804 37.9994L71.3804 46.7696L70.4892 46.7696L70.4892 42.5365L65.985 42.5365L65.985 46.7696L65.0938 46.7696L65.0938 37.9994Z" fill="#3D334C"/>
<path d="M77.7573 37.7788C79.0982 37.7788 80.2202 38.222 81.1234 39.1083C82.0267 39.9947 82.4783 41.0858 82.4783 42.3815C82.4783 43.6653 82.0267 44.7544 81.1234 45.6487C80.2242 46.543 79.1263 46.9902 77.8296 46.9902C76.5169 46.9902 75.4089 46.545 74.5056 45.6547C73.6024 44.7643 73.1508 43.6872 73.1508 42.4232C73.1508 41.5806 73.3555 40.7996 73.765 40.0802C74.1785 39.3607 74.7405 38.7983 75.451 38.3929C76.1616 37.9835 76.9304 37.7788 77.7573 37.7788ZM77.7995 38.6373C77.1451 38.6373 76.5249 38.8063 75.9388 39.1441C75.3527 39.482 74.895 39.9371 74.5658 40.5094C74.2367 41.0818 74.0721 41.7197 74.0721 42.4232C74.0721 43.4646 74.4354 44.345 75.162 45.0644C75.8926 45.7799 76.7718 46.1376 77.7995 46.1376C78.486 46.1376 79.1202 45.9727 79.7023 45.6428C80.2884 45.3129 80.7441 44.8617 81.0693 44.2894C81.3984 43.717 81.563 43.0811 81.563 42.3815C81.563 41.6859 81.3984 41.0579 81.0693 40.4975C80.7441 39.9331 80.2844 39.482 79.6903 39.1441C79.0962 38.8063 78.4659 38.6373 77.7995 38.6373Z" fill="#3D334C"/>
<path d="M84.2788 37.9994L86.0251 37.9994C86.7276 37.9994 87.2676 38.0829 87.6449 38.2498C88.0223 38.4128 88.3194 38.6652 88.5361 39.007C88.7569 39.3488 88.8673 39.7284 88.8673 40.1457C88.8673 40.5353 88.771 40.891 88.5783 41.213C88.3856 41.5309 88.1026 41.7893 87.7292 41.988C88.1909 42.143 88.5462 42.3259 88.7951 42.5365C89.044 42.7432 89.2367 42.9956 89.3731 43.2937C89.5136 43.5878 89.5839 43.9078 89.5839 44.2536C89.5839 44.9571 89.323 45.5533 88.8011 46.0422C88.2832 46.5271 87.5867 46.7696 86.7116 46.7696L84.2788 46.7696L84.2788 37.9994ZM85.1459 38.8579L85.1459 41.6661L85.6517 41.6661C86.266 41.6661 86.7176 41.6104 87.0066 41.4991C87.2957 41.3839 87.5245 41.205 87.6931 40.9625C87.8617 40.7161 87.946 40.4438 87.946 40.1457C87.946 39.7443 87.8035 39.4303 87.5185 39.2037C87.2375 38.9732 86.7878 38.8579 86.1696 38.8579L85.1459 38.8579ZM85.1459 42.5485L85.1459 45.911L86.2419 45.911C86.8882 45.911 87.3619 45.8494 87.663 45.7262C87.9641 45.599 88.2049 45.4023 88.3856 45.136C88.5703 44.8697 88.6626 44.5815 88.6626 44.2715C88.6626 43.882 88.5341 43.5421 88.2772 43.252C88.0203 42.9618 87.667 42.7631 87.2174 42.6558C86.9163 42.5842 86.3924 42.5485 85.6457 42.5485L85.1459 42.5485Z" fill="#3D334C"/>
<path d="M95.5574 37.7788C96.8982 37.7788 98.0203 38.222 98.9235 39.1083C99.8268 39.9947 100.278 41.0858 100.278 42.3815C100.278 43.6653 99.8268 44.7544 98.9235 45.6487C98.0243 46.543 96.9263 46.9902 95.6297 46.9902C94.3169 46.9902 93.2089 46.545 92.3057 45.6547C91.4024 44.7643 90.9508 43.6872 90.9508 42.4232C90.9508 41.5806 91.1556 40.7996 91.565 40.0802C91.9785 39.3607 92.5405 38.7983 93.2511 38.3929C93.9617 37.9835 94.7304 37.7788 95.5574 37.7788ZM95.5996 38.6373C94.9452 38.6373 94.325 38.8063 93.7389 39.1441C93.1527 39.482 92.6951 39.9371 92.3659 40.5094C92.0367 41.0818 91.8721 41.7197 91.8721 42.4232C91.8721 43.4646 92.2354 44.345 92.9621 45.0644C93.6927 45.7799 94.5719 46.1376 95.5996 46.1376C96.286 46.1376 96.9203 45.9727 97.5024 45.6428C98.0885 45.3129 98.5442 44.8617 98.8693 44.2894C99.1985 43.717 99.3631 43.0811 99.3631 42.3815C99.3631 41.6859 99.1985 41.0579 98.8693 40.4975C98.5442 39.9331 98.0845 39.482 97.4904 39.1441C96.8962 38.8063 96.266 38.6373 95.5996 38.6373Z" fill="#3D334C"/>
<path d="M102.061 37.9994L107.137 37.9994L107.137 38.8639L102.946 38.8639L102.946 41.6064L107.101 41.6065L107.101 42.465L102.946 42.465L102.946 45.9051L107.101 45.9051L107.101 46.7696L102.061 46.7696L102.061 37.9994Z" fill="#3D334C"/>
<path d="M112.075 37.9994L118.361 37.9994L118.361 46.7696L117.47 46.7696L117.47 38.8341L112.966 38.8341L112.966 46.7696L112.075 46.7696L112.075 37.9994Z" fill="#3D334C"/>
<path d="M120.511 37.9994L122.276 37.9994C123.287 37.9994 123.97 38.0431 124.323 38.1306C124.829 38.2538 125.242 38.5082 125.563 38.8937C125.885 39.2753 126.045 39.7562 126.045 40.3365C126.045 40.9208 125.889 41.4037 125.575 41.7853C125.262 42.1629 124.831 42.4173 124.281 42.5485C123.879 42.6439 123.129 42.6915 122.029 42.6915L121.396 42.6915L121.396 46.7696L120.511 46.7696L120.511 37.9994ZM121.396 38.852L121.396 41.833L122.896 41.8509C123.502 41.8509 123.946 41.7972 124.227 41.6899C124.508 41.5786 124.728 41.4018 124.889 41.1593C125.05 40.9129 125.13 40.6386 125.13 40.3365C125.13 40.0424 125.05 39.7741 124.889 39.5317C124.728 39.2852 124.516 39.1103 124.251 39.007C123.99 38.9037 123.56 38.852 122.962 38.852L121.396 38.852Z" fill="#3D334C"/>
<path d="M132.037 37.7788C133.378 37.7788 134.5 38.222 135.403 39.1084C136.306 39.9947 136.758 41.0858 136.758 42.3815C136.758 43.6654 136.306 44.7544 135.403 45.6487C134.504 46.543 133.406 46.9902 132.109 46.9902C130.796 46.9902 129.688 46.545 128.785 45.6547C127.882 44.7644 127.43 43.6872 127.43 42.4233C127.43 41.5806 127.635 40.7996 128.044 40.0802C128.458 39.3607 129.02 38.7983 129.73 38.3929C130.441 37.9835 131.21 37.7788 132.037 37.7788ZM132.079 38.6374C131.425 38.6374 130.804 38.8063 130.218 39.1441C129.632 39.482 129.174 39.9371 128.845 40.5094C128.516 41.0818 128.351 41.7197 128.351 42.4233C128.351 43.4646 128.715 44.345 129.441 45.0644C130.172 45.7799 131.051 46.1376 132.079 46.1376C132.765 46.1376 133.4 45.9727 133.982 45.6428C134.568 45.3129 135.023 44.8617 135.349 44.2894C135.678 43.717 135.842 43.0811 135.842 42.3815C135.842 41.6859 135.678 41.0579 135.349 40.4975C135.023 39.9331 134.564 39.482 133.97 39.1441C133.376 38.8063 132.745 38.6374 132.079 38.6374Z" fill="#3D334C"/>
<path d="M146.784 39.6271L146.085 40.1577C145.7 39.6608 145.236 39.2852 144.694 39.0309C144.156 38.7725 143.564 38.6433 142.918 38.6433C142.211 38.6433 141.557 38.8122 140.955 39.1501C140.353 39.484 139.885 39.9351 139.552 40.5035C139.223 41.0679 139.058 41.7038 139.058 42.4113C139.058 43.4805 139.427 44.3728 140.166 45.0883C140.909 45.8037 141.844 46.1615 142.972 46.1615C144.213 46.1615 145.25 45.6805 146.085 44.7186L146.784 45.2433C146.342 45.7998 145.79 46.231 145.128 46.5371C144.469 46.8392 143.733 46.9902 142.918 46.9902C141.368 46.9902 140.146 46.4794 139.251 45.4579C138.5 44.5954 138.125 43.5541 138.125 42.3338C138.125 41.05 138.578 39.9709 139.486 39.0964C140.397 38.218 141.537 37.7788 142.906 37.7788C143.733 37.7788 144.479 37.9418 145.146 38.2677C145.812 38.5897 146.358 39.0428 146.784 39.6271Z" fill="#3D334C"/>
<path d="M147.687 38.852L147.687 37.9994L152.547 37.9994L152.547 38.852L150.571 38.852L150.571 46.7696L149.668 46.7696L149.668 38.852L147.687 38.852Z" fill="#3D334C"/>
<path d="M153.811 37.9994L155.575 37.9994C156.587 37.9994 157.27 38.0431 157.623 38.1306C158.129 38.2538 158.542 38.5082 158.863 38.8937C159.184 39.2753 159.345 39.7562 159.345 40.3365C159.345 40.9208 159.188 41.4038 158.875 41.7853C158.562 42.1629 158.131 42.4173 157.581 42.5485C157.179 42.6439 156.429 42.6916 155.329 42.6916L154.696 42.6916L154.696 46.7696L153.811 46.7696L153.811 37.9994ZM154.696 38.852L154.696 41.833L156.196 41.8509C156.802 41.8509 157.245 41.7972 157.526 41.6899C157.807 41.5786 158.028 41.4018 158.189 41.1593C158.349 40.9129 158.43 40.6386 158.43 40.3365C158.43 40.0424 158.349 39.7741 158.189 39.5317C158.028 39.2852 157.816 39.1103 157.551 39.007C157.29 38.9037 156.86 38.852 156.262 38.852L154.696 38.852Z" fill="#3D334C"/>
<path d="M164.734 37.9994L168.865 46.7696L167.914 46.7696L166.523 43.884L162.705 43.884L161.32 46.7696L160.333 46.7696L164.518 37.9994L164.734 37.9994ZM164.626 39.8596L163.103 43.0374L166.131 43.0374L164.626 39.8596Z" fill="#3D334C"/>
<path d="M170.232 37.9994L171.123 37.9994L171.123 41.678L175.628 41.678L175.628 37.9994L176.519 37.9994L176.519 46.7696L175.628 46.7696L175.628 42.5365L171.123 42.5365L171.123 46.7696L170.232 46.7696L170.232 37.9994Z" fill="#3D334C"/>
<path d="M186.924 39.6271L186.226 40.1577C185.84 39.6608 185.377 39.2852 184.835 39.0309C184.297 38.7725 183.705 38.6433 183.058 38.6433C182.352 38.6433 181.697 38.8122 181.095 39.1501C180.493 39.484 180.025 39.9351 179.692 40.5035C179.363 41.0679 179.198 41.7038 179.198 42.4113C179.198 43.4805 179.568 44.3729 180.306 45.0883C181.049 45.8037 181.984 46.1615 183.113 46.1615C184.353 46.1615 185.391 45.6805 186.226 44.7187L186.924 45.2433C186.483 45.7998 185.931 46.231 185.268 46.5371C184.61 46.8392 183.873 46.9902 183.058 46.9902C181.509 46.9902 180.286 46.4794 179.391 45.4579C178.64 44.5954 178.265 43.5541 178.265 42.3338C178.265 41.05 178.719 39.9709 179.626 39.0964C180.537 38.218 181.677 37.7788 183.046 37.7788C183.873 37.7788 184.62 37.9418 185.286 38.2677C185.953 38.5897 186.499 39.0428 186.924 39.6271Z" fill="#3D334C"/>
<path d="M187.828 38.852L187.828 37.9994L192.687 37.9994L192.687 38.852L190.712 38.852L190.712 46.7696L189.809 46.7696L189.809 38.852L187.828 38.852Z" fill="#3D334C"/>
<path d="M193.982 37.9994L195.728 37.9994C196.43 37.9994 196.97 38.0829 197.348 38.2498C197.725 38.4128 198.022 38.6652 198.239 39.007C198.46 39.3488 198.57 39.7284 198.57 40.1458C198.57 40.5353 198.474 40.891 198.281 41.213C198.088 41.5309 197.805 41.7893 197.432 41.988C197.894 42.1431 198.249 42.3259 198.498 42.5365C198.747 42.7432 198.94 42.9956 199.076 43.2937C199.217 43.5879 199.287 43.9078 199.287 44.2536C199.287 44.9571 199.026 45.5533 198.504 46.0422C197.986 46.5271 197.29 46.7696 196.414 46.7696L193.982 46.7696L193.982 37.9994ZM194.849 38.858L194.849 41.6661L195.355 41.6661C195.969 41.6661 196.42 41.6104 196.71 41.4991C196.999 41.3839 197.227 41.205 197.396 40.9626C197.565 40.7161 197.649 40.4439 197.649 40.1458C197.649 39.7443 197.506 39.4303 197.221 39.2038C196.94 38.9732 196.491 38.858 195.872 38.858L194.849 38.858ZM194.849 42.5485L194.849 45.9111L195.945 45.9111C196.591 45.9111 197.065 45.8495 197.366 45.7262C197.667 45.5991 197.908 45.4023 198.088 45.136C198.273 44.8697 198.365 44.5815 198.365 44.2715C198.365 43.882 198.237 43.5421 197.98 43.252C197.723 42.9618 197.37 42.7631 196.92 42.6558C196.619 42.5842 196.095 42.5485 195.349 42.5485L194.849 42.5485Z" fill="#3D334C"/>
<path d="M205.26 37.7788C206.601 37.7788 207.723 38.222 208.626 39.1084C209.53 39.9947 209.981 41.0858 209.981 42.3815C209.981 43.6654 209.53 44.7544 208.626 45.6487C207.727 46.543 206.629 46.9902 205.333 46.9902C204.02 46.9902 202.912 46.545 202.009 45.6547C201.105 44.7644 200.654 43.6872 200.654 42.4233C200.654 41.5806 200.858 40.7996 201.268 40.0802C201.681 39.3608 202.243 38.7983 202.954 38.3929C203.665 37.9835 204.433 37.7788 205.26 37.7788ZM205.302 38.6374C204.648 38.6374 204.028 38.8063 203.442 39.1441C202.856 39.482 202.398 39.9371 202.069 40.5094C201.74 41.0818 201.575 41.7197 201.575 42.4233C201.575 43.4646 201.938 44.345 202.665 45.0645C203.396 45.7799 204.275 46.1376 205.302 46.1376C205.989 46.1376 206.623 45.9727 207.205 45.6428C207.791 45.3129 208.247 44.8617 208.572 44.2894C208.901 43.717 209.066 43.0811 209.066 42.3815C209.066 41.686 208.901 41.058 208.572 40.4975C208.247 39.9331 207.787 39.482 207.193 39.1441C206.599 38.8063 205.969 38.6374 205.302 38.6374Z" fill="#3D334C"/>
<path d="M220.308 42.6975L220.308 46.7696L219.411 46.7696L219.411 42.6975L219.14 42.4531L215.515 46.7696L214.341 46.7696L218.568 41.9105L214.678 37.9994L215.87 37.9994L219.411 41.7078L219.411 37.9994L220.308 37.9994L220.308 41.7078L223.855 37.9994L225.054 37.9994L221.164 41.9105L225.385 46.7696L224.21 46.7696L220.579 42.4531L220.308 42.6975Z" fill="#3D334C"/>
<path d="M233.677 46.7696L232.755 46.7696L232.755 40.0504L226.92 46.7696L226.722 46.7696L226.722 37.9994L227.607 37.9994L227.607 44.8379L233.478 37.9994L233.677 37.9994L233.677 46.7696Z" fill="#3D334C"/>
<path d="M236.025 38.852C236.647 38.1366 237.416 37.7788 238.331 37.7788C239.058 37.7788 239.658 37.9875 240.132 38.4049C240.606 38.8182 240.842 39.3548 240.842 40.0146C240.842 40.9487 240.399 41.6184 239.512 42.0238C240.68 42.3815 241.264 43.1566 241.264 44.349C241.264 45.144 241.003 45.7839 240.481 46.2688C239.959 46.7537 239.245 46.9962 238.337 46.9962C237.703 46.9962 237.151 46.867 236.681 46.6086C236.216 46.3463 235.776 45.8892 235.363 45.2374L236.049 44.8379C236.459 45.4341 236.842 45.8177 237.199 45.9886C237.557 46.1555 237.928 46.239 238.313 46.239C238.875 46.239 239.353 46.078 239.746 45.7561C240.14 45.4341 240.337 44.9611 240.337 44.3371C240.337 44.0072 240.268 43.721 240.132 43.4786C239.999 43.2321 239.811 43.0334 239.566 42.8824C239.321 42.7313 239.088 42.6359 238.867 42.5962C238.646 42.5564 238.283 42.5366 237.777 42.5366L237.627 42.5366L237.627 41.7674L237.922 41.7674C239.235 41.7674 239.891 41.2408 239.891 40.1875C239.891 39.6986 239.74 39.3111 239.439 39.0249C239.142 38.7348 238.765 38.5897 238.307 38.5897C237.713 38.5897 237.155 38.856 236.633 39.3886L236.025 38.852Z" fill="#3D334C"/>
<path d="M242.998 37.9994L243.889 37.9994L243.889 41.678L248.394 41.678L248.394 37.9994L249.285 37.9994L249.285 46.7696L248.394 46.7696L248.394 42.5366L243.889 42.5366L243.889 46.7696L242.998 46.7696L242.998 37.9994Z" fill="#3D334C"/>
<path d="M258.402 46.7696L257.48 46.7696L257.48 40.0504L251.645 46.7696L251.447 46.7696L251.447 37.9994L252.332 37.9994L252.332 44.8379L258.203 37.9994L258.402 37.9994L258.402 46.7696Z" fill="#3D334C"/>
</svg>
