<svg xmlns="http://www.w3.org/2000/svg" width="1440" height="1011" fill="none" viewBox="0 0 1440 1011">
  <path fill="#f2f6fd" d="M0 0h1439v1011H0z"/>
  <g opacity=".05" style="mix-blend-mode:luminosity">
    <path fill="#fec247" d="M1049.52 505.25h229.07c55.23 0 100 44.772 100 100v152.625h-229.07c-55.23 0-100-44.772-100-100z"/>
    <path fill="#6b5acc" d="M1703.66 505.25h-229.07c-55.23 0-100 44.772-100 100v152.625h229.07c55.23 0 100-44.772 100-100z"/>
    <path fill="#21c1f3" d="M1374.59 757.875h229.07c55.23 0 100 44.772 100 100V1010.5h-229.07c-55.23 0-100-44.772-100-100z"/>
    <path fill="#ee4f3c" d="M1378.6 757.875h-229.07c-55.23 0-100 44.772-100 100V1010.5h229.07c55.23 0 100-44.772 100-100z"/>
    <path fill="#fec247" d="M1045.52 0h229.07c55.23 0 100 44.772 100 100v152.625h-229.07c-55.23 0-100-44.771-100-100z"/>
    <path fill="#6b5acc" d="M1703.66 0h-229.07c-55.23 0-100 44.772-100 100v152.625h229.07c55.23 0 100-44.771 100-100z"/>
    <path fill="#21c1f3" d="M1374.59 252.625h229.07c55.23 0 100 44.772 100 100V505.25h-229.07c-55.23 0-100-44.772-100-100z"/>
    <path fill="#ee4f3c" d="M1378.6 252.625h-229.07c-55.23 0-100 44.772-100 100V505.25h229.07c55.23 0 100-44.772 100-100z"/>
  </g>
  <g opacity=".05" style="mix-blend-mode:luminosity">
    <path fill="#fec247" d="M391.418 505.25h229.074c55.228 0 100 44.772 100 100v152.625H491.419c-55.229 0-100.001-44.772-100.001-100z"/>
    <path fill="#6b5acc" d="M1049.58 505.25H820.511c-55.229 0-100 44.772-100 100v152.625h229.073c55.226 0 99.996-44.772 99.996-100z"/>
    <path fill="#21c1f3" d="M720.501 757.875h229.074c55.225 0 99.995 44.772 99.995 100V1010.5H820.501c-55.228 0-100-44.772-100-100z"/>
    <path fill="#ee4f3c" d="M720.501 757.875H491.428c-55.229 0-100 44.772-100 100V1010.5h229.073c55.229 0 100-44.772 100-100z"/>
    <path fill="#fec247" d="M391.418 0h229.074c55.228 0 100 44.772 100 100v152.625H491.419c-55.229 0-100.001-44.771-100.001-100z"/>
    <path fill="#6b5acc" d="M1049.58 0H820.511c-55.229 0-100 44.772-100 100v152.625h229.073c55.226 0 99.996-44.771 99.996-100z"/>
    <path fill="#21c1f3" d="M720.501 252.625h229.074c55.225 0 99.995 44.772 99.995 100V505.25H820.501c-55.228 0-100-44.772-100-100z"/>
    <path fill="#ee4f3c" d="M720.501 252.625H491.428c-55.229 0-100 44.772-100 100V505.25h229.073c55.229 0 100-44.772 100-100z"/>
  </g>
  <g opacity=".05" style="mix-blend-mode:luminosity">
    <path fill="#fec247" d="M-262.669 505.25h229.073c55.229 0 100 44.772 100 100v152.625h-229.073c-55.229 0-100-44.772-100-100z"/>
    <path fill="#6b5acc" d="M393.475 505.25H164.402c-55.229 0-100 44.772-100 100v152.625h229.073c55.229 0 100-44.772 100-100z"/>
    <path fill="#21c1f3" d="M63 758h229.073c55.229 0 100 44.772 100 100v152.62H163c-55.228 0-100-44.767-100-99.995z"/>
    <path fill="#ee4f3c" d="M66.414 757.875H-162.66c-55.228 0-100 44.772-100 100V1010.5h229.074c55.228 0 100-44.772 100-100z"/>
    <path fill="#fec247" d="M-267 0h229.073c55.229 0 100 44.772 100 100v152.625H-167c-55.228 0-100-44.772-100-100z"/>
    <path fill="#6b5acc" d="M391.145 0H162.071c-55.228 0-100 44.772-100 100v152.625h229.073c55.229 0 100.001-44.772 100.001-100z"/>
    <path fill="#21c1f3" d="M62.083 252.625h229.073c55.229 0 100 44.772 100 100V505.25H162.083c-55.229 0-100-44.772-100-100z"/>
    <path fill="#ee4f3c" d="M62.083 252.625h-229.074c-55.228 0-100 44.772-100 100V505.25h229.074c55.228 0 100-44.772 100-100z"/>
  </g>
</svg>
